/* XPM */
static const char *xpm_[] = {
/* columns rows colors chars-per-pixel */
"64 64 199 2 ",
"   c #9A553C",
".  c #9B5C44",
"X  c #9D5D49",
"o  c #945A42",
"O  c #8A5D56",
"+  c #875F55",
"@  c #A15F46",
"#  c #A25F4A",
"$  c #AA5F48",
"%  c #9D624C",
"&  c #8D635C",
"*  c #9E6351",
"=  c #90655E",
"-  c #A06047",
";  c #A3614B",
":  c #A9624C",
">  c #AE6B54",
",  c #A76854",
"<  c #AF715E",
"1  c #B9725C",
"2  c #8E6562",
"3  c #8E6962",
"4  c #926661",
"5  c #956A65",
"6  c #966E6A",
"7  c #996C66",
"8  c #96726D",
"9  c #9C7262",
"0  c #957572",
"q  c #9D7A74",
"w  c #9C7673",
"e  c #A37566",
"r  c #AF7864",
"t  c #B17563",
"y  c #B47E69",
"u  c #BD7D6C",
"i  c #BA7565",
"p  c #A57D74",
"a  c #C17E6D",
"s  c #9C817C",
"d  c #948079",
"f  c #AB8273",
"g  c #AC867D",
"h  c #AE897B",
"j  c #A4847A",
"k  c #B58A7C",
"l  c #BD8B7C",
"z  c #C28574",
"x  c #C48B7D",
"c  c #CC8875",
"v  c #968981",
"b  c #9D9894",
"n  c #A38683",
"m  c #A88681",
"M  c #A48A86",
"N  c #AC8C84",
"B  c #A58C89",
"V  c #AB8D8A",
"C  c #B58D81",
"Z  c #BB8E81",
"A  c #B08E8D",
"S  c #A4908C",
"D  c #AD918D",
"F  c #AB9087",
"G  c #B49184",
"H  c #BC9183",
"J  c #B2938B",
"K  c #BC958A",
"L  c #BC998E",
"P  c #AE9691",
"I  c #A79B92",
"U  c #AB9A95",
"Y  c #A19D9A",
"T  c #AE9C99",
"R  c #B29591",
"E  c #B69A95",
"W  c #BB9D94",
"Q  c #B19C9A",
"!  c #BA9D9A",
"~  c #B89792",
"^  c #ABA49C",
"/  c #A7A29E",
"(  c #BAA096",
")  c #B4A29C",
"_  c #BDA29D",
"`  c #B6A095",
"'  c #ABA6A2",
"]  c #AEA9A3",
"[  c #AFADAA",
"{  c #A5A1A0",
"}  c #B4A5A3",
"|  c #BDA5A2",
" . c #B3AAA4",
".. c #BCABA4",
"X. c #B4AEAB",
"o. c #BCACA9",
"O. c #B5B1AC",
"+. c #BBB2AE",
"@. c #B6B4B2",
"#. c #BAB5B2",
"$. c #BCB9B5",
"%. c #BEBCBA",
"&. c #C28E81",
"*. c #C39284",
"=. c #C59689",
"-. c #C99689",
";. c #C6998B",
":. c #CB9A8C",
">. c #CC9183",
",. c #D49A8F",
"<. c #C29E91",
"1. c #D19E91",
"2. c #CBA195",
"3. c #C3A49A",
"4. c #CBA59C",
"5. c #CEA99F",
"6. c #C3A396",
"7. c #D1A195",
"8. c #D3A79C",
"9. c #C1A6A3",
"0. c #C4ABA4",
"q. c #CBACA4",
"w. c #C4ADAA",
"e. c #D6AFA6",
"r. c #DCADA2",
"t. c #C4B3AD",
"y. c #CCB3AB",
"u. c #CCB8AF",
"i. c #D2B6AE",
"p. c #DAB3AB",
"a. c #C3B5B2",
"s. c #CBB6B2",
"d. c #C4B9B5",
"f. c #CABAB6",
"g. c #C2BDBB",
"h. c #CBBCBA",
"j. c #DCBCB6",
"k. c #D1BEBB",
"l. c #D6BDB7",
"z. c #C3C1BE",
"x. c #CCC1BE",
"c. c #D4C1BC",
"v. c #DCC3BC",
"b. c #C2BFC0",
"n. c #BFC1C0",
"m. c #C5C4C3",
"M. c #CAC6C3",
"N. c #CBC9C6",
"B. c #C7C7C9",
"V. c #CAC7C8",
"C. c #C6CAC9",
"Z. c #CDCCCB",
"A. c #D3C5C2",
"S. c #D8C7C0",
"D. c #D4C9C6",
"F. c #D9CAC5",
"G. c #D1CDCC",
"H. c #D9CECC",
"J. c #CED0CE",
"K. c #D2D1CE",
"L. c #DBD2CC",
"P. c #CECFD1",
"I. c #D1CFD0",
"U. c #CFD2D2",
"Y. c #D4D4D3",
"T. c #D9D6D4",
"R. c #D6D8D6",
"E. c #DAD9D6",
"W. c #D6D6D8",
"Q. c #D9D7D8",
"!. c #D6D9DA",
"~. c #DEDEDC",
"^. c #DBDBDA",
"/. c #E0C7C3",
"(. c #E3DED7",
"). c #E0DEDB",
"_. c #E1DEDC",
"`. c #DEE0DC",
"'. c #E1E2DE",
"]. c #E4E2DE",
"[. c #E3E2DE",
"{. c #DDDFE1",
"}. c #E1DFE0",
"|. c #DFE3E4",
" X c #E5E5E1",
".X c #E4E4E2",
"XX c #E9E6E3",
"oX c #E8E7E3",
"OX c #E7E8E3",
"+X c #E6E8E4",
"@X c #EAE9E5",
"#X c #EAEAE5",
"$X c #EDECE9",
"%X c gray91",
"&X c #F1EEEA",
"*X c #EFF0EA",
"=X c #F2F2ED",
"-X c #F8F5EE",
";X c #F3F3F1",
/* pixels */
"G.G.G.g.z.^.T.T.T.R.R.R.R.oX).~.oX X XoX'.^.E.^.R.Y.Y.].@X].'.~.Y.N.M.M.g.+.Z.Y.K.T.G.N.N.%.%.g.z.z.%.[ O.N.Z.Y.Y.R.R.R.^.!.R.Y.",
"#X#XOX'.~.^.R.T.^.~.~.'.=X XR.T.W.R.R.R.Y.Z.Z.R.Y.Y.Y.@X@X].'..X X X.X.X'.R.@X_.R.R.^.N.M.S.k.A.c.k.h.h.k.h.~.%X'.oXOX'.~.Y. X$X",
"~.R.Y.R.R.Y.Y.Y.Y.Y.Z.R.~.Y.R.R.R.W.Y.Y.^.^.Q.R.R.Y.R. XR.Y.Y.Y.Y.Y.Y.Y.R.^.].!.Y.K.R.O.+.0._ _ | ! ! 9.9.! E.~.Y.~.R.R.V.$.].^.",
"P.Y.Y.Y.Y.Y.R.Y.Y.R.^.R.^.R.M.N.Z.K.#.] m.g.N.Z.K.G.R.).Y.R.R.Y.Y.Y.R.Y.Y.Y.Y.N.$.#.z.O.M.a.h.M.M.d.h.h.h.d.'. XY.Y.Y.Z.@.g.^.Z.",
"Y.~.~.E.^.~.^.R.Y.'. X~.R.Y.R.K.K.G.Y.Y.m.O.'.^.^.R.R.R.`.$.K.oX X'.]. X.X.X~.l.p.p.e.p.e.q.q.q.k.M.! ! 3.! E E ! E } R.'.].R.m.",
"#X'.^.^.R.R.R.R.N.~.[.Y.R.R.R.R.R.W.R.R.R.Y. XY.R.R.!.W.^.#.E.=X X X@X X_.'.E.7.:.*.=.&.l &.Z l 9.a.O & = & O + 4 & 4 ).@X~.!.N.",
"m.N.N.Z.Z.Y.Z.Z.%.m.G.Z.Z.Z.Y.Y.R.Y.Y.Y.Y.!.^.Y.U.Y.m.m.Z.$.]._.Y.^.R.R.^.R.Y.6.K H W W L W W K t.%.8 B ) Q M n n n B R.Y.Z.P.z.",
"K.G.G.K.G.Y.Y.Z.$.K.Y.Y.K.K.R.Y.$.D.F.S.S.F.h.d.h.h.g.z.g.m.~.Y.Y.Y.]. X^.^.W.Y.Z.G.Y.Y.G.D.D.D.D.D.D.Y.T.T..X@X X X+XR.K.T.Y.Y.",
".X~.'.^.^.R.^.Z.X.%XR.R.R.R.R.J.) r.7.1.1.:.=.=.;.*.x.!.R.R.Y.R.W.Z..X~.Y.R.Y.Y.R.R.Y.R.s.E ! ! R R R E R | $XoX X X).~.'.=X@X.X",
"Y.m.g.Z.N.%.M.O.O.R.Z.Y.K.Y.Y.m.) *.Z l H k l l l k a.R.Y.Y.R.Y.Z.%.M.G.J.J.K.Y.Y.R.Y.R.o.M R P D B V V V )  XY.R.Y.Y.Y.R._.Y.U.",
").Y.K.Y.h.f.h.x.h.+.a.a.a.h.m.z.N.f.w.t.h.d.a.f.a.a.G.^.R.R.T.Y.N.$.m.N.Z.Z.Z.Z.Y.R.^.'.G.M.T.~.E.G.T.(.T.E..X~.~.R.R.`._.^.'. X",
"#X+X.X'.w.~ E E R D R E R a.~.^.!.R.Y.!.Z.~.!.^.~.^.^.^.^.!.^.~.N.X.^.R.Y.G.K.R.R.R._.R.^.~.~.~..X$X-X~.^.^.R.R.R.Y.K.$X.X^.#X X",
"Y.Z.Z.Y.) V R Q E D D D V U C.N.P.Z.N.m.' m.m.m.m.m.%.%.m.m.%.m.] O.^.K.N.N.Y.Y.Y.P.V.Y.Z.Y.K.N.%.~.R.Z.Z.Z.Z.K.Y.V.z.Y.m.g.R.Y.",
"M.M.z.N.D.M.R.R.m.^.(.E.T.E.R.Z.M.R.G.N.#.[ Z.D.N.N.m.m.m.M.N.K.K.R.^.~.'..X^.^.oX'.R.R.R.E.E.Y.K.Z.G.Y.Y.m.m.oX X].].).K.z.z.m.",
"'.'.Y.R.R.^.^.Y.O.=X$X@X$XoX X]..X$X$X#X.X.X$X+X.X~.^.^.~.Y.^.~.R.R.R.R.^.^.].=XoXT.R.T.R.R.R.R.#X*X#X$X@XR.Y.&X.X X].~._.~.Y.R.",
"^.].R.R.R.J.Y.Z.z.@XY.R.^.Y.Y.Y.~.~.^.R.Z.K.{.R.Y.Y.Y.Y.Y.[ N.R.Y.Y.Y.Y.Y.Y.R.Y.Y.Y.Y.Y.Y.Y.Y.R. X XR.Y.R.Z.R.].R.^.W.Y.R.m.R.R.",
"N.%.$.m.m.+.g.$.N.~.R.Y.G.Z.N.N.Z.K.Z.Y.m.@.X.O.O.O.@.#.@.[ Y.Y.R.^.^.R.^.Y.N.#.K.R.R.R.W.R.Y.m.Y.Y.U.Y.K.m.g.Z.N.N.N.Z.m.@.M.M.",
"K.K.K.R.^.@X#X'.'.~.~.~.~.R.G.Z.Z.Z.Z.Z.Z.Y.N.m.~.R.~.~.'.%X'.].*X X~.~.~.^.~.^.R.#X@X@X@X XQ.Z.N.M.m.z.z.$.X.z.G.G.K.K.G.G.G.G.",
"^.^.^.~.$X#X^.Y.Y.R.R.R.Y.R.^.T.T.^.R.R.R.R.R.Y.R.Y.Y.Z.Y.Y.Y.oX~.Y.Y.Y.Y.Y.Y.Y.~.+X~.'.R.R.R.R.W.R.R.R.R.R.K.@X@X~.~.'.~.~.^.^.",
"Y.K.Y.K.R.Y.m.Z.Z.N.M.Z.m.X.m.m.Z.m.M.Z.K.K.Z.Z.J.Z.M.Z.Y.Y.^.R.R.T.^.R.R.Y.R.Y.^.Y.Z.N.N.N.N.Z.Y.Z.Y.Z.P.Z.Z.].Y.Z.P.Y.Y.Y.Y.Y.",
"}.'.]._.R.^.N.G.K.K.G.Z.z.K.R.E.^.R.Y.K.R.Z.m.E.).^.~.^.~.~.$X#X@X#X#X@X~.~.@XoX@X~.Y.^.Q.R.Y.Y.Y.Y.+.K.R.Y.Z.N.z.m.N.N.m.Z.].'.",
"@XoX'._.^.#X~.^.~.~.~.~.^.~.~.^.^.R.Y.K.R.Y.Y.@X~.R.R.^.R.~.@X^.].~.R.R.Y. XoX].~.T.R.+XR.R.R.R.R.Y.X.@X'.^.~.^.N.K.R.R.Y.~.$X].",
"Y.Z.Z.P.b.K.Y.Y.Y.Y.Y.R.g.Z.R.Y.Y.Y.K.K.Y.I.g.K.K.Z.Y.Y.K.~.Q.Y.R.Y.Y.Y.Y.~.^.R.R.m.N.Y.Z.Z.Z.Z.Y.m.+.'.I.G.K.Z.%.K.R.R.Y._.~.Y.",
"m.J.K.K.K.~.K.M.N.N.N.N.O.$.+.@.K.N.N.N.Z.N.z.z.z.G.K.K.Y.^.^.^.R.K.N.m.m.N.N.Z.N.z.%.O.#.g.g.z.m.m.N.Z.Z.K.Z.Z.N.K.G.N.K.G.M.m.",
"R.$X$X$XoX].^.R.~.R.Y.Y.^.~.z.Z.'.R.^.^._.~.'. X#X&X'.^.^.R.^.^.R.R.Y.R.R.Y.Y.Y.Y.R.R.Z.Z.!.R.W.R.R.R.Y.@X$X%X@XoX].R.Y.Y.Y.Y.Y.",
"R. XY.K.N.Y.R.N.W.W.R.R.R.R.^.R.Y.Y.Y.Y.Y.Y.Y.R.oXR.R.R.R.Y.R.R.^.N.Z.Y.Y.Y.Y.Y.R.Y.Y.Y.Y.Y.Y.Y.R.Y.Y.M. XR.^.R.Y.Y.z.R.R.Y.Y.R.",
"m.Z.Z.Z.Z.Z.N.#.M.V.M.M.M.m.m.N.K.R.R.Y.R.W.R.R.N.m.z.g.m.m.z.g.N.#.$.m.N.Z.M.m.N.Y.R.R.M.z.G.G.Z.Z.z.X.g.z.m.N.N.z.@.m.Z.Y.Y.Z.",
"N.N.G.Z.M.m.m.@.g.T.K.K.K.K.G.m.T.&XoXoX@XoX X[.T.N.Z.b $. X~.^.K.Z..X].'.~.^.R.Y.^.@X%X'.^.R.R.R.R.+.m.Z.J.Y.Y.Z.K.K.Z.Z.G.N.m.",
"$X@X.X{.^.R.~.Z.~.=XoX#X@X.X.X^.@X@X~.[.'.^.R.R.T.R.~.%.Z.~.R.R.^.R.R.^.R.Y.R.G.G.R.%X{.^.^.^.!.^.Z.@.^.^.!.^.^.^.^.^.Z.Z.R.Y.+X",
".X^.R.R.R.W.R.#.~.~.R.^.Y.Y.W.N.G.Y.Z.Z.V.V.N.P.R.Y.R.N.m.Z.Z.Y.Z.' m.Z.N.Z.Z.U.Y.R.m.m.g.%.%.%.z.{ $.Z.m.h.g.$.$.O.#.O.g.R.Y..X",
"b.z.$.$.$.g.O.' ~.Y.Y.H.G.H.G.+.X.g.+.h.M.m.z.Z.W.R.Y.Z.G.K.Z.Z.N.M.M.' N.~.~._.~.~.Y.G.N.m.Z.Y.Y.Y.Y.M.$.#.O.#.$.O.Y.].^.R.T.N.",
"Z.m.N.N.I.K.G.R.~.Z.x.3.E ! ! ! ! ! _ ) I.!.R.R.Y.N.Y.Y.W.!.W.R.W.^.^.N.'.#X[.R.R.Y.R.R.^.Y. XoX!.R.R.R.^.!.^.^.~.G.~. XY.R.R.Y.",
"Q.X.G.^.R.!.R.Y.R.O.O.A V D P V V V D M N.R.W.K.Z.K.^.Z.V.!.R.R.R.R.Y.^.oX`.Y.Y.Y.Y.Y.Y.R.m.T.~.Y.Y.W.Y.Y.Y.Y.P.Z.z.m.K.Z.Y.Y.Y.",
"N./ ^ #.m.N.g.$.m. .N.d.M.I.Z.x.h.d.d.g.Y.z.M.N.M.z.m.$.X.g.z.z.m.z.$.g.M.Z.R.R.R.R.R.Z.m.%.%.N.N.Z.N.Y.^.R.R.Y.N.$.m.m.Z.Z.Z.Z.",
"@XoX~.Y.| x.T.G.E. Xs.0.! d.=.z y z u y t c..XT.Y.K.K.Z.$.T.'.).R.R.R.R.E.^.Y.R.R.W.R.R.Y.#.J.I.Y.Y.Y.Y.T.R.!.^.R. .R.T.R.R.oX@X",
" X).^.R.q p h.w n j 4 4 O q > ; X : # X   t.{.R.^.~.~.'.oX=X@X^.T.Q.R.R.^.R.m.Y.Y.R.Y.W.x.^ !.Y.Y.Y.R.R.Y.N.g.m.+.' R.Y.Y.R.@X'.",
"Y.Y.U.C.B s  .} V n B S B X.F e 9 j g h h M.~.R.W.R.Y.U. XoXR.I.K.Z.K.N.Z.Z.M.K.Z.z.#.g.#.$.^.E.^.T.R.^.Y.N.g.x.Z.Y.R.R.R.~.~.G.",
"N.q.4.6.2.6.q.y.Y.L./.v.v.v.v.k.A.D.G.G.f.t.s.0.| ..o.+.a.N.N.Z.Z.Y.Y.Z.'.@X@X XR.Y.Y.Y.R.R.R. X^.R.R.R.R.'.g.G.-X@X@X@X X XM.N.",
"x.i > , 1 > : @ 0.r.:.-.-.-.x 5.L.2.0.w.4 7 5 5 & 4 6 5 0 Y.R.R.R.R.R.R..X^.R.R.m.I.R.R.R.R.Y.].R.R.R.R.Y.^.%.R.oXR.~.T.Y.Y.^ K.",
"d.* X o % * , % t.<.k H H G C 3.y.k t.X.& w n s 8 8 8 6 0 N.Z.Z.Z.N.N.m.Z.Z.Y.N.$.%.m.m.N.N.K.I.m.N.Z.%.#.z.$.T.Y.Y.Y.Y.W.m.v m.",
"R.h... .t.t.t.t.D.D.h.h.D.Z.x.x.h.h.D.D.d.G.R.R.K.Z.T.T.Y.Y.Y.R.R.~.R.R.Y.Y.Y.R.R.^.M.Z.[.'.).R.R.R.Y.T.).Y.~.N.O.#.$.+.+.] I M.",
"w.w.M.T.,.>.z x a *.i.4.t f.k.! | 9.! E ) _ W a.^.R.OX^.R.Q.Q.R.R. X^.!.^.^.^.R.Y.R.^.].^.Y.N.Y.R.R.Y.oX'.W.R.R.R.k.9.0.0.| 9.o.",
"V m Q t.$ ; @ - . X y r   | w.m V V V n N V M Q !.N.Z.Z.m.m.m.G.#.g.V.N.N.M.m.Z.Y.Y.Y.~.Y.Z.K.Y.Y.Y.m.~.R.Y.Y.Y.W.o.m V D N m N ",
"+.o.h.N.N p f J j h C h f z.h.o.x.D.M.f.h.f.o.D.'.Z.M.K.K.K.K.M.m.T.~.~.R.Y.K.Y.R.R.Y.Y.R.R.!.R.J.m.$.z.N.Z.Z.Z.R.d.) a.h.d.#.#.",
"j.j.j.i.l.u.s.A.|.=X$X$X%X X@X+X.X'.'..X.X^.G.$X^.~.~.~.~.~.~.^.^.~.E.R.R.^.K.Y.Y.Y.Y.Y.R.R.T.R.R.N.$.'.'.'..X'._. X+X+X+X.XH.v.",
"=.=.=.*.&.*.l L ^.'._.R.K.^.^.Y.Y.Y.Y.Y.Y.Y.N.R.Y.Y.Y.K.Y.Y.Y.Z.$.Y.W.J.K.K.G.R.N.M.W.W.R.Y.W.Y.!.#.$.$XY.N.m.m.m.z.g.%.#./ 2.,.",
"H K J G K K H ( R.E.Y.W.m.%.Z.Z.J.Z.U.U.K.m.$.z.m.m.g.M.N.N.Z.z.O.g.] N.Y.Y.R.Y.m.#.d.x.A.f.t...d. .z.c.q.W E E ` d.K.K.G.d.<.Z ",
"M.Z.K.Z.Z.x.t.f.k.k.h.h.f.s.g.a.5.4.3._ a.Y.K.Y.N.K.Y.^.R.Y.R.^.~.R.$.#X$X@X@X@X~.:.c u u u t < t < C 4.=.;.=.;.*.F.;X#X@X+XY.N.",
"^.R.R.Y.!.M.9.9.9.| ! _ 9._ #.y.l H *.l 0.{.K.N.K.^.Z.Z.W.R.R.R.R.R.^.oXR.~.R.Y.G.t @ % @ . . @ #   e 6.l H *.H l c..XQ.Y.N.N.R.",
"m.N.N.Z.Y.M.w.f.x.h.a.a.d.a.M.A.W _ 3.W o.Z.D.Z.N.Z.%.%.N.N.m.N.N.g.N.Z.P.Y.Y.T.!.0.k f J E N G G k _ h.( ( _ _ ) g.Y.Z.J.z.$.m.",
"m.oX@XOX XOX+X X^.Y.Y.^.&X$X@X@X#X@X@X XR.E.T.G.L.K.g.X.G.K.G.K.K.Y.Y.Y.^.oX$X'._..X.X|.|..X`.Y.w.w.0.| 9.a..X.X X'.~.E.E.R.^.Y.",
"Y.#XoX~.T.R.Y.N.M.K.Z.^.$X`.`..X~.R.R.T.^.*X$X@X%XOX^.Z.~.R.R.R.W.R.R.^. X$X~.R.R.Y.Y.Y.Y.K.R.G.P V V V J P  X[.^.^.R.^.^.R.R.R.",
"#.Z.N.Z.Z.Z.Z.K.Y.Y.m.N.Y.Z.Y.Z.I.Y.Y.Y.Y.].^.Z.Y.Y.Y.m.Y.Y.R.Y.Y.R.Y.Y.R.Y.Z.Y.Y.Y.Y.K.Y.Y.Y.g.B ) U B D S $.m.m.N.m.M.N.Y.Y.R.",
"g.Z.K.Y.K.G.G.R.R.G.z.m.Z.K.K.Y.Y.Y.R.~.]. X).~.R.R.G.z.M.M.M.M.Z.Z.Z.M.Z. X~.'..X X'.~.Z.~.^.M.K.E.~.T.Z.M.Y.~.).E.T.Y.Y.T.G.z.",
"~.'. X*X$X#XoX X'.~.K..X~.^.~..X]. XoX=X'.^.^.^.^.~.A.9._ 0._ ! ! ) | ! x.*X X~.T.K.R.W.Y.@X&X$X X'._._.R.Z.~.^.R.R.R.Y.G.Y.R.Y.",
"Y.Y.Z.$X`.R.Y.Y.R.Z.' R.Y.Y.Y.Y.Y.R.$X~.Y.R.Y.R.Y.^.h.V J D D V V J R m o..XY.Z.M.K.Y.R.Y. X X^.R.R.W.~.z.[ ^.Y.Y.R.Y.Y.R.R.R.R.",
"Z.g.^ b.#.g.g.+.+.] Y N.Y.K.Z.Z.Y.Y.Y.N.Z.Z.N.Z.N.P.#.B Q } } T T T T U X.C.P.U.Y.Y.P.Z.M.Z.B.m.m.%.@.@.b Y Z.Y.Y.P.Y.Y.N.m.m.N.",
"'.'.~.Z.) g g N g m N N g.@X@XoX$X#X~.~.oX'.].R.Z..X].'. X X XY.h.l.i.y.y.q.0.0.0.t.C.m.m.m.z.m.Z.G.Z.M.%.m.K.R.Y.I.Y.Y.K.Z.Z.).",
"+X`.R.!.d.5 6 6 3 2 8 4 } $X@X~.R.R.R. X%X X).T.~.$X'. X'.^.~.G.8.1.-.:.:.=.*.*.&.3.!.R.R.^.R.+X$X$X.X~.~.^.^.Y.Z.R.R.R.Y.R.R.@X",
"Q.R.Y.^.d.& 8 w 3 2 4 & d G.~.R.Y.Y.Y.~.^.R.Y.n.Z.~.Y.Y.G.Y.Y.%.K Z k C h g H H Z N N.R.Y.Y.K.^.~.R.Z.Y.R.R.^.@.N.!.R.R.R.R.N.~.",
"V.m.z.m.g.U  .^ I I )  .+.g.M. .#.g.$.%.m.Z.N.%.z.g.z.Z.K.Y.Y.T.T.L.D.L.N.g.K.K.K.d.N.#.$.T.Y.K.K.'.R.m.@.$.@.Y g.N.N.N.m.m.#.M.",
"Z.Z.Z.N.oX=X@X@X@X$X$X$X@X'.^.%.K.W.Y.Y.Y.Y.Y.Y.W.Z.~.=X$XoX@X@X^.~.`.~.~. X=X@X$X+X@XM.T.-X#X#X+X X'.^.K.'.'..X).R.K.G.N.m.%.#.",
"R.R.^.N.%X@X X~.^.R.R.Y.R.Y.!.Z.K.Y.Y.R.R.Y.R.Y.Y.Y.'.'.R.R.~.R.Y.Y.Y.R.m.^.~.R.R.R.Y.R.].OX~.R.Y.R.R.Z.O. X'.^.^.^.~.~.~.R.W.T.",
"Z.Z.N.#.N.N.m.m.z.#.#.$.%.%.N.@.#.z.M.M.m.z.m.Y.R.Y.^.R.Y.Y.m.I.Y.Y.Y.Y.g.m.Z.Z.Z.Z.Z.m.K.K.G.R.Y.N.N.$.b G.Y.Y.Y.Y.Y.Y.N.z.Z.Z."
};
