/* XPM */
static const char *xpm_[] = {
/* columns rows colors chars-per-pixel */
"64 64 222 2 ",
"   c #783B1F",
".  c #732C2A",
"X  c #7C2E2A",
"o  c #762E22",
"O  c #6D3425",
"+  c #65362E",
"@  c #6E342E",
"#  c #663F2E",
"$  c #6C3C2D",
"%  c #7C3526",
"&  c #753E25",
"*  c #7B3B25",
"=  c #75342B",
"-  c #7B342C",
";  c #743C2C",
":  c #7B3B2C",
">  c #6C3633",
",  c #663C34",
"<  c #6C3C34",
"1  c #643C3A",
"2  c #6D3E3A",
"3  c #673632",
"4  c #7A3734",
"5  c #743D33",
"6  c #7C3D33",
"7  c #753E39",
"8  c #7C3F39",
"9  c #763732",
"0  c #6B422E",
"q  c #754225",
"w  c #7B4324",
"e  c #73432E",
"r  c #7C432D",
"t  c #74492D",
"y  c #7B4C2C",
"u  c #7F4B24",
"i  c #664635",
"p  c #6C4334",
"a  c #6C4A36",
"s  c #66443A",
"d  c #6C443B",
"f  c #66483C",
"g  c #6D4A3C",
"h  c #734334",
"j  c #7B4434",
"k  c #744A34",
"l  c #7C4B35",
"z  c #73443B",
"x  c #7B453A",
"c  c #744B3C",
"v  c #7C4C3C",
"b  c #6D513F",
"n  c #745035",
"m  c #7E5236",
"M  c #75513D",
"N  c #7C523D",
"B  c #7B583E",
"V  c #6F4640",
"C  c #664941",
"Z  c #6D4A40",
"A  c #744641",
"S  c #7B4641",
"D  c #744D42",
"F  c #7C4D42",
"G  c #6E5243",
"H  c #755242",
"J  c #7C5342",
"K  c #7D5A44",
"L  c #765148",
"P  c #7D5349",
"I  c #7D5949",
"U  c #8C2F27",
"Y  c #8A2E29",
"T  c #832B26",
"R  c #833425",
"E  c #8B3525",
"W  c #823C23",
"Q  c #8C3C24",
"!  c #83342B",
"~  c #8D342A",
"^  c #833C2D",
"/  c #8C3D2C",
"(  c #933C2D",
")  c #9B3E2D",
"_  c #933A25",
"`  c #843D33",
"'  c #8A3D34",
"]  c #843C38",
"[  c #8A3F39",
"{  c #923C32",
"}  c #9C3D33",
"|  c #923F39",
" . c #9B3E39",
".. c #A63A2F",
"X. c #A6352E",
"o. c #A43C33",
"O. c #A83E31",
"+. c #804024",
"@. c #8D4525",
"#. c #83442D",
"$. c #8B432C",
"%. c #834A2D",
"&. c #8C4B2C",
"*. c #934326",
"=. c #9A4727",
"-. c #93442C",
";. c #99422D",
":. c #924A2C",
">. c #994A2E",
",. c #875427",
"<. c #83532D",
"1. c #8D522D",
"2. c #92542D",
"3. c #9F582E",
"4. c #834434",
"5. c #8B4434",
"6. c #834B35",
"7. c #8B4B34",
"8. c #83443B",
"9. c #8B453B",
"0. c #834C3B",
"q. c #8B4C3B",
"w. c #924335",
"e. c #9B4334",
"r. c #944A34",
"t. c #9B4B34",
"y. c #92453A",
"u. c #9B453B",
"i. c #944B3C",
"p. c #9B4B3C",
"a. c #845235",
"s. c #8C5334",
"d. c #8D5836",
"f. c #83533C",
"g. c #8B533C",
"h. c #85583D",
"j. c #8C5A3C",
"k. c #935434",
"l. c #9B5434",
"z. c #935A35",
"x. c #9B5A34",
"c. c #93533B",
"v. c #9A533B",
"b. c #935B3B",
"n. c #9B5B3B",
"m. c #A4422D",
"M. c #A34A2F",
"N. c #A9472C",
"B. c #B04F2E",
"V. c #A1542E",
"C. c #A95D2F",
"Z. c #B2502D",
"A. c #A44434",
"S. c #AA4334",
"D. c #A34C32",
"F. c #AA4C33",
"G. c #A34639",
"H. c #AA4539",
"J. c #A14A3B",
"K. c #AC4A3B",
"L. c #A35435",
"P. c #AB5333",
"I. c #A55C34",
"U. c #A95B34",
"Y. c #A4543D",
"T. c #A35C3C",
"R. c #B15236",
"E. c #87613E",
"W. c #9E6137",
"Q. c #97623D",
"!. c #9C633D",
"~. c #A26237",
"^. c #A3643C",
"/. c #AC6239",
"(. c #A86536",
"). c #B06136",
"_. c #814741",
"`. c #8C4540",
"'. c #844C42",
"]. c #8B4C42",
"[. c #864C48",
"{. c #924C43",
"}. c #994D42",
"|. c #835343",
" X c #8B5343",
".X c #845A44",
"XX c #8C5A43",
"oX c #845549",
"OX c #8B564A",
"+X c #845B49",
"@X c #8D5A4B",
"#X c #925546",
"$X c #935444",
"%X c #9C5442",
"&X c #925B44",
"*X c #9A5C41",
"=X c #93554B",
"-X c #985248",
";X c #935B4A",
":X c #985D4A",
">X c #875B51",
",X c #915B51",
"<X c #A34C43",
"1X c #A45541",
"2X c #A45A42",
"3X c #8E6247",
"4X c #8B6346",
"5X c #866248",
"6X c #8D634C",
"7X c #946445",
"8X c #9C6443",
"9X c #966846",
"0X c #93644B",
"qX c #9A624D",
"wX c #96694C",
"eX c #9A6D4E",
"rX c #946352",
"tX c #92645A",
"yX c #966954",
"uX c #A26445",
"iX c #AF6F41",
"pX c #A16D49",
/* pixels */
"r r ; r e 8.J.p.u.u.9.A.A.} o.9.3X7X&Xj.g.a.x.k.k.x.0.9.9.9.9.z p h h h p v q.0.9.q.x E E / ( 4.v.L.D.L.v.^ E W E / 5 = - = X 7 ",
"e h < $ p 8.w.9.9.9.8.5.w.5.$.9.|.f.f.f.v c a.6.6.a.v 8.x j 4.z d d d a s g j j j 0.z : 6 j j z g.q.q.k.g.h r j : r z h 5 = = 5 ",
"P.l.4.( ( ( E h a c k n f r 6.#.#.r K XX3XXX.XJ p.i.v.i.0.].$X-X$X$Xg p p p p d : : : : h .XXXj.g.v v q.c.b.c.|.#X#X{.$X|.: % : ",
"7.6.j : ^ #.4.g g g g g g 6.s.a.g.N H M M c M H 0.l 0.l F '. XOX XoXM c g g g c 6.x v v z v l k l k k l v l l D c v c z c j j l ",
"j h @.:.:.:.%.A S S z 2 |././.(.iX3Xp p 0 h p l a.6.l l f.1X2X2XY.|.4X7XXX@X+XoX;X X X=Xc $ $ h l p O O = : $ , 5 h > + h %.1.d.",
"0.v 8.x d h d d d d h d z j M l l l k a d k c J J z 4.4.6 ` x d z d d d x 6.x x 4.v c.b.7Xj.N c v c x c k l N B c k r 6.a.s.N 8.",
"8.9.q.'.s 2 2 , 1 1 5 5 h 5 d p h e r k x 0.|.0.f.h U Y T U 6 s d 2 , 1 j *.$.@.&.6.I.V.L.U.c.v 0.0.|.F M h.N N h.M 1.2.1.1.l 9.",
"H h ; h j h N b.b.b.b.|.5 ; ; * 5 k 8.x 0.x z 4.j 4.4.h l j v l h h.b.j.j.j.'.q.9.9.q.S |.XX;X;X|.F ]._.|.'.P ;X@XOX=XI @X;X;X-X",
"D h : : * : l b.b.z.k.v ; % = * ; z x 0.0.S z 6.0.6.6.k x v x j x g.b.j.k.j.v [ 9.[ [ S v f.'.|.J S ].'.].'.P @X>XoX|.L |. X X X",
"c.b..X9.r.r.r.i.N l a.a.6.a a d d d f x 6.j 4.0.J .X|.|..XH @XXX@X#X|.g v K K c 6.m.;.D.M.x 6 : : ^ j K XX+X+XoXH K B .X.Xc u.u.",
"s.g.0.0.q.9.0.].v v f.|.N k k p p g z x 0.0.0.D D c c c K P |. X|.oXv h x v v k 4.5.$.5.7.x 5 5 ; 5 h L J c H D D v k c c v u.r.",
").k.A.F.A.S.t.q.A.t.t.e.f.z.z.z.x.f.) m.m.m.;.g z p p < D $X$X$X*Xf.X R ! R - j ^ #.^ ^ s < $ < 5 < p h 0 h p > = . = . j x.&.&.",
"j.J 0.9.9.9.'.J 0.0.0.0.k j j j j J XX X Xg.J 2 < < 5 < v c.q.q.c.+X|.|.v 0.F K |.F '.F S x 0.0.v D H M H H D h e e ; $ l a.6.%.",
"m g 4 8 8.8 A .XXX XXX+X$ & ; ; ; H eXwX0XwX.X> j j 6 > 5.F.P.P.F.|.rXqX:X&XoXoX@X@X@XoXa.l.l.T.T..X6X;X0X0X+Xw w w +.q 6.:.s.x.",
"f.XXXXj.J ].{. X#XoXq.c.q.q.0.c K B N N K x S v x z oXoXoX XXXc h c v k c q.0.0.9.0.|.|.'. X|.c |.J M M k 5.7.#./ j j 0.0.0.|.F ",
"j.g.j.j.J {.y.{.}.0.5.-.w.e.5.c N N l N c 7 x 7 5 z oXg. XXX|.g j l j l h 9.q.7.7.v F 0.v '.F d h z x v z E / / Q 4.l 7.6.7.0.x ",
"5 5 5 d 8.x 6 6 7 _.9.`.]._.[ o.A.A.o.8.@X;X;X#X|.p h h k h b .X.X.XK D $X$Xg.&X|.7 ] ` - 6 oX$X=X;XXXz z 7 7 x z _.8.0.'.'.D v ",
"5 ; $ d j j x j z 8.9.8.].0.4.{ { w.{ v |.@X@X&X|.a k a g c G M K K B c 0.0.|.|.v j 6 6 6 6 F |.|.v 0.z z x z x D F _.S v S D l ",
"b h j j 6 h c 4.0.x : z / ( / ~ 6 h.d.6.s.f.c a.f.f.f.g d d 2 , 1 7 ^ - ` 4.k w w %.y n 7.s.k.z.6.r #.#.%.%.J |.|.XX+Xd = 4 ^ - ",
"8.x 4.] h h j j : h v v 4.4.0.v v B f.f.N l c k c c k g f d f c v 0.4.4.x c M k k k k z x l |.f.M x x j h j c l J v f.N j 4.x z ",
"o.O...o.^ Q E *.=.6.7X!.c.*X7XK 3X.X.X4Xk 6 j j 8.c g h h h g b.U.I.~.I.N E.j.h.m H v 0.l 0.M F [.'.'.OXD : #.4.#.l l.T.L.L.n.8.",
"l c f.0.F l c c v c F c l j.g.f.j.B K K K c c K M H J H a p z v h z g. X].g.|.x j x 4.6 5 - 5 7 5 z i.q.9.y.8.|.j.+XXXXXl l l h ",
"q a f.h.h.h.H A F F S A M k.7.s.k.B +X.X+X5XK B .XB K B d 3 , 3 3 d -X{.i.}.].] { { ' ` 9 ! ! X ! x %XJ.J.Y.i.6XeX7X7X0Xc e e e ",
"M M K D v oX|.|.H c c n J g d.~.~.W.x.l %.#.r 4.l { ) e.} w.6.$.&.r.7.N :X:X&X$X|.$X}.}.%X9.c f.|..X|.Z , 2 2 2 d k v k z d D N ",
"H M M D v F F v D k z h h h a.l.x.l.x.l r : : #.j 9.{ { { ' 4.&.7.$.$.v c.c.c.7.0.].y.9.y.9.J f.f.N N g , 2 < < 2 z 5 5 h d c J ",
"`.9.{.'.w.e.u.e.9.y.K.H.o.S.8.[ [ 9.' 6 @X:X:X#XXXx 5.5.4.5.z > 6 7 6 > % R R R % 8.} { {  .x x x x x D oXOX=XOXOXN k.k.b.k.J +X",
"0.x 8.x 9.4.0.q.q.'.y.q.5.5.'.4.8.x x z J oXoX'.F k v 0.6.0.N h x h j j x 6.x x x '.i.].5.5.h h z x x x v '.|.v S N 6.l f.6.M |.",
"!.] / / ' ` A y.9.i.{.0.7.r.>.>.k.H M M J H C z z c z d 8X8X8X8XXX0.l.v.l.k.|.rXrXrXyXP ; r r #.j r.Z.P.F.F.l y <.s.%.t f.j.7XE.",
"0.j 6 : j 4.x 8.6 z 4.4.: ^ 6 8.8.D x c c c c z z g d d c c D k k M l k v 5.0.q.q.0.i.9.` ' 4.v k v 0.f.9.e.4.5.5.h z k v J J 0.",
"#.#.#.r j / / 5.-.6 E R R E - 8.9.9.[ 8.c 4.4.0.4.d 1 < d d s s k c p a 7 ( ) ;.;.8.G.m.A.S.u.L J J J D 4.m.A.A.O.8.z _.x x z { ",
"i.v.i.|. Xg. X&XF z z h v g D H c H H h l l l k n c.g.j.c.|.j l 0.0.l |.$X$Xi.c.|.a.6.s.s.f.x x x j x K +X'.|.OX.XXX@Xg.XXJ z j ",
"e.e.r.|.&X X X XD < < z z Z M M M B M p & r y e M b.b.b.z.|.r / $.&.4.q.v.v.r.v.K f.s.s.g.v 6 ` : ^ j I @X|.|.oX+X&X:X&Xb.|.d h ",
"^ ^ #.j f.s.g.XXXX0.u.5.` w.0.9.w.y.y.8.#.^ / $.#.c x x v v a h 5 h h p #.&.$.&.6.0.i.i.i.u.k k M M c g q w u ,.<.2 = 6 6 ` 5 * ",
"j j #.j f.g.f.g.h.j 5.4.` ` x 9.[ ' 5.8.6.4.j 4.v c x z j h z 5 5 p $ , r r #.%.l v 4.6.q.q.v l v x j k l l l 6.l 5 - : 6 j h : ",
"oXXX8Xn.n.7Xg h h h h h e.) e.o.' y &.&.&.s.I +X.X.X6XJ 5.5.' ' x < 5 5 @ + 0 w r %.y k p.p.v.1X].J.P.F.R.T.9.o.o.o.X.6 k h h z ",
"M f.f.j.|. XF v v x x j 5.{ ' ] x k l x j #.x x 6.M v 0.8.4.x l h < $ < k v l a.f.N r l g.7.0.0.0.r.t.r.7.7.v 4.4.8.i.|.P J M v ",
"k.s.&.k.0.<X<X}.<X].t.M.l.D.t.D J |.|.J z *._ Q =.5.! ~ / ( ' k w w & & B wX:X0XqX.X#.$.#.$.j 9.D.L.D.D.z p p k k g 0X8X8XpX0X X",
"g.q.g.I K J F F J '.].]. X].c h 0 p p c +X X|. XJ N 0.0.0.0.x v x x j k 0.g.g.c.f.f.7.7.s.s.F |. X'.0.x 6 8 8 8.x L |.|.|.J J 0.",
"c.q.q.H M M M n g y.}.}.}.9.p e e e & D ,XOXOX@XP .Xj.h.h.f.7 ` ' ` ^ x 7.k.r.l.s.7.>.l.l.k.|.OXOX|.oXD ` 5.' ` 8.J F |.|.D x {.",
"j.b.T.n.l.l.P +X|.|.oXK Q.n.b.!.XXJ f.h.f.f.8.} e.u.e.0.XXb. X$Xg.F ].'.|. XD |.|.oX|.v |.|.|.|.P 9.y.w.y.5.P 6XrX@X@XJ j 6.r r ",
"g.j.n.b.k.b.K J M J J P b.b.b.b.j.k 0.s.f.f.j { w.y.w.0.h.j.XX&X|.v '.v '.|.L F v J |.D f.|.'.0.J 8.w.r.5.' J &XXX&Xg.v #.#.%.%.",
"XX+XXXXX X0XP , < < < z i.p.u.u.i.'.t.p.p.u.v d.k.1.&.l A [._._.F x _ ( ( ~ 8.Y.T.Y.Y.$X'.q.8.0.'.K 7X4X4X4XK V.L.C.).n.n.U.U.U.",
"D H |.|. Xj.N z z z h z  Xc.q.9.g.K q.8.4.' 8.6.6.0.a.N F 0.x x x 6 ^ ` ` 4.v g.g.q.7.0.z x c v v K .XN N N J s.s.7.7.f.0.g.g.q.",
"< $ # s n.l.r.l.b.a.k.2.k.s.B ^.W.^.W.d.$.-.;.;./ |.8X:Xc.$Xl @.*.:.Q 5 Z v v S D ; % W W R z 5.` 5.5.z 7.r.5.5.8.< = 7 j 5 C b ",
"k h 7 '.q.{.q.'.|.'.0.g.v h z j j x l 6.x x l c z H D c D |.J v x x 0.F F F F z z 5 : : h r j j 6.v j 6.6.#.6.h p p h h p 6 h h ",
"b.|. .H.H.S.G.'.}.}.{.}.S 3 > , > 1 5 * : : j s , h p p g ].].0.9.x '.$X X]. Xz ^ ^ ^ $.k %.#.#.7.6.%.&.&.&.7.f p p p g f * *   ",
"v c k l N M 0.r.q.c.7.4.5.7.5.5.0.l #.%.4.r s d d d s Z M c c c g |.=X@X@X Xz z x j h p j h h e < K K K M H N a.a.a.a.v g.7.7.5.",
"6.a k n k c v r.r.k.r.4.r.-.-.-.7.6.6.s.s.#.s d d z d f c M M M c |.OXOXOXOXd < h h < s e ; l l p c K N N M l &.s.z.z.v q.c.c.c.",
"%.l :.:.:.*.4.v 6.f.j.j.Z z A 7 A Z ^ / #.$.4.j 6.r : r f g a i a g l.l.>.t.7.d.x.x.x.x.p ; 6 ; ; h J.G.G.K.i.i.J.u.u.y.j ^ : : ",
"j c 6.4.4.7.f.N v v v l Z z z d A c 4.6.6.4.j p j h h k g p i p a c -.-.-.$.6.a.z.s.d.j.p e ; e e v i.y.i.u.q.9.y.y.u.i.j ^ : : ",
">XrXtXrXtX.XW.x.z.k.l 0 k l e 0 c q.0.0.0.D e h e 5 < %.@.#./ r 8.| [ ' ] s k m l y g S '.F S A .X7XXXg. Xj / / E E 7 j #.#.^ : ",
"N K  X X0.f.6.l 0.f.M k a k c c F F 0.0.0.v z l l j l 6.l 6.6.6.'.v 9.q.q.f.l h e j p z v |.v v K J v 0.v j ^ 4.4.4.j k v f.0.l ",
"2.m :.k.&.*.#.Z J J +X+XD 0.XXXX XJ v.2Xv.l.g.x.C.I.U.3..X8X8X!.pXj.L./.P.B.t.< : j 6.j N ^.n.!.T.N w W W &.l j j j 6.0. XT.2X2X",
"l F  X'.'.'.S N f.N f.B |.q.8.q.g.v 8.q.9.9.|.s.k.k.k.j.z x 0.x h |.s.k.s.7.l 5 ; 7 5 5 x 9.4.9.0.h 5 ; ; ; d S v '.v D j r l 6.",
"t J =X=X{.{.'.1.z.1.&.a.i.w.y.w.9.8.9.9.9.9.F k.b.k.^.XX@ = % - = j 7.s.d.s.k = % = = 5 j ` ^ ! 6 h * : * % 5 '.'.|. XP ; % : : ",
"j c |.h..Xh.H '.|.|.'.F K |..X|.|.c 6 j j j h ^ ^ ^ / 4.w.o.G.G.o.v K |..X.XM |. X Xg.|.D S S S '.A 4.4.4.9.h a.k.s.&.6.6 | 5.[ ",
"h k j.h.f.f.v z 8.S 0.x c f.f..X.Xc ; ; : 6 h : ^ 4.^ 6 8.u.e.e.u.F n M M K H .XXXh.f.v z 8.0.0.0.z j 6 6 6 7 &.2.&.&.%.x ' ' 5.",
"c M k.b.k.k.f.0.0.0.g.N e ; ; ; ; l l.k.k.x.f.; ; ; * ; b.n.!.uXn.x ] 6 ] ] S i.y.w.u.9.N f.h.j.f.h : ` 6 6 < = 6 ; = > 0XuX*X*X",
"c M 6.6.6.f.k j x l 4.k h ; 6 j j c s.f.h.g.M h h h h h |.f.g.s.0.z 6 j 7 5 z 0.9.4.9.0.J N f.f.B z 5 ; 5 ; p l h h h F +XXX X X",
"s.c 6.l l a.j o % % R : } X...S.O.|.7X0X7XwX|.7.k.7.$.j d c D z V g f..Xh.v M b.b.Q.!..XoX&Xb.#X;Xg p p < + z b.s.s.k.j.#X-X-X$X",
"N m 7.g.d.f.l 4.4.5.4.F 8.9.9.9.x L J J oXI |.9.g.9.6.x J K J |.c j j j x x c v l l c K f.f.0.0.J +Xf.0.f.v K XXh.XXj.K F |.|.'.",
"N k.x.x.x.g.r.N.D.F.M.q.i.q.c.c.v [. XOX].'.#X2X%Xv.%X|.@XXX XXXv T ! / ( 6 h 6 : = 5 0.l.t.t.;.0.uXuXuX^.*X9X^.^.^.!.|.OX X XXX",
"G I +X+X.XJ H M H M M L '.'.]. XF p x h h 2  Xv.k.v.v. Xi.v.c.v. Xc v z z D G c a k M H ]. XOX XP N h.f.f.f..XXX.XXXXXJ 6.6.0.6.",
"f +Xh..X.XK H c c M n D 9.q.q.q.x < 5 < 5 p |.n.n.n.n.0.t.Y.L.D.q.c 0.v j x b a p a a g $X=X;X$XF 6.s.s.s.j..X&XXXXXXXv #.%.%.#."
};
