/* XPM */
static const char *xpm_[] = {
/* columns rows colors chars-per-pixel */
"64 64 177 2 ",
"   c #2B2724",
".  c #2D2B26",
"X  c #2E2D2A",
"o  c #332E27",
"O  c #322E2A",
"+  c #2F312F",
"@  c #34322D",
"#  c #3A342E",
"$  c #2E2F31",
"%  c #2F3331",
"&  c #353532",
"*  c #3A3632",
"=  c #3C3935",
"-  c #393738",
";  c #363A39",
":  c #3D3C39",
">  c #403730",
",  c #433C36",
"<  c #423D39",
"1  c #3F403A",
"2  c #45413C",
"3  c #4B443D",
"4  c #4C483F",
"5  c #3B3F40",
"6  c #464541",
"7  c #4B4642",
"8  c #4D4A44",
"9  c #4D4C49",
"0  c #514742",
"q  c #524B45",
"w  c #594F46",
"e  c #534E4A",
"r  c #55514C",
"t  c #5B544D",
"y  c #565651",
"u  c #5B5651",
"i  c #545857",
"p  c #5D5954",
"a  c #5E5C58",
"s  c #61544B",
"d  c #615650",
"f  c #625B55",
"g  c #695E55",
"h  c #645E59",
"j  c #636057",
"k  c #65625B",
"l  c #6A645C",
"z  c #70675E",
"x  c #666560",
"c  c #6B6661",
"v  c #6D6963",
"b  c #6F6B68",
"n  c #706561",
"m  c #726B64",
"M  c #796F66",
"N  c #736D69",
"B  c #786F68",
"V  c #767067",
"C  c #74716B",
"Z  c #7B736C",
"A  c #757472",
"S  c #7C7671",
"D  c #7E7973",
"F  c #7E7D7B",
"G  c #80756D",
"H  c #81786E",
"J  c #817772",
"K  c #837B74",
"L  c #897E76",
"P  c #837E79",
"I  c #8B7E78",
"U  c #848077",
"Y  c #8A8177",
"T  c #87807A",
"R  c #8B837C",
"E  c #92867D",
"W  c #92887F",
"Q  c #858180",
"!  c #8C8681",
"~  c #8E8882",
"^  c #8D8B8C",
"/  c #918781",
"(  c #948B84",
")  c #9A8E85",
"_  c #948E89",
"`  c #988F88",
"'  c #9D9185",
"]  c #959188",
"[  c #9C938B",
"{  c #9D9792",
"}  c #9F9891",
"|  c #A2958C",
" . c #A5998E",
".. c #AA9A8E",
"X. c #A19790",
"o. c #A49B93",
"O. c #AB9D94",
"+. c #A49F99",
"@. c #AA9F9A",
"#. c #B09F96",
"$. c #B09F98",
"%. c #A6A097",
"&. c #ADA196",
"*. c #A7A098",
"=. c #ADA39A",
"-. c #B2A296",
";. c #B3A59C",
":. c #B8A79C",
">. c #B5A99E",
",. c #BAAA9E",
"<. c #ACA2A0",
"1. c #AFA8A2",
"2. c #B2A7A0",
"3. c #B8A7A0",
"4. c #B5AAA2",
"5. c #BBADA3",
"6. c #B7AEA9",
"7. c #B9AFA9",
"8. c #B6B0A4",
"9. c #BCB0A2",
"0. c #BAB0A7",
"q. c #BDB1A5",
"w. c #BEB0A5",
"e. c #BDB0A7",
"r. c #BFB1A6",
"t. c #BEB0A7",
"y. c #BEB1A6",
"u. c #BFB2A9",
"i. c #BEB6AB",
"p. c #BFB2AC",
"a. c #BEB2A9",
"s. c #BDB6B0",
"d. c #BFB8B2",
"f. c #C0AEA2",
"g. c #C1AFA4",
"h. c #C0AFA8",
"j. c #C0B0A3",
"k. c #C1B0A6",
"l. c #C2B1A7",
"z. c #C0B2A7",
"x. c #C4B2A6",
"c. c #C2B4A7",
"v. c #C4B4A5",
"b. c #C1B2A6",
"n. c #C8B7A7",
"m. c #C1B3A9",
"M. c #C0B3AA",
"N. c #C2B4A9",
"B. c #C1B4AB",
"V. c #C3B5AA",
"C. c #C2B6AA",
"Z. c #C6B5AB",
"A. c #C5B7AA",
"S. c #C6B4A8",
"D. c #C1B4AC",
"F. c #C5B7AD",
"G. c #C4B7AE",
"H. c #C7B6AE",
"J. c #C2B5AA",
"K. c #C8B6A8",
"L. c #C9B7AA",
"P. c #C4B8AC",
"I. c #C5B9AE",
"U. c #C8BAAF",
"Y. c #C8BAAE",
"T. c #C2B7B0",
"R. c #C7B8B1",
"E. c #C6BAB1",
"W. c #C9BBB0",
"Q. c #CABCB1",
"!. c #CCBEB3",
"~. c #CEBDB5",
"^. c #CABCB2",
"/. c #CEC0B5",
"(. c #CBC2B7",
"). c #CCC2B9",
"_. c #D0C2B7",
/* pixels */
"E 5.=.;.>.4.=.>.=.;.O.>.>.>.5.=.4.R q 5.q.v.x.~.!.!.^.U.B.5.5.k.j.e.F.&.5.I.K = K p.>.>.;.4.;.>.=.;.;.;.4.>.4.5.5.4.;...4.;.=.r ",
"Z O.>.4.O.;.4.>.>.;.o.;.=.;.>.;.6.S 3 6.A.K.j.F./.B.5.e.B.k.e.e.5.5.>.O.5.B.R @ m F.;.-.4.4.O.>.;.;.4.>. .=.4.;.4.4.5.>.;.6.=.8 ",
"g  .4.4.5.e.5.4.5.2.=.;.O.=.;.4.{ f = 2.A.A.5.0.>.O. .;.M.B.5.5.k.F.5.5.c.e.[ < f =.:.O.o.=.5.;.e.=.=.4.;.;.4.4.2.5.e.F.5.0.R @ ",
"7 T X.[ [ ( R R D C j t 4 8 7 8 7 & < 6.F.5.5.i. .|  .;.e.B.B.k.,.M.e.e.,.&.` 2 2 _ 0.5.5.=.*.=.O.=.6.=.2.=.=.| { X.( ( _ R e @ ",
"& * # * = = = & X 1 8 f v Z Z C 8 = & [ h.,.>.>.&.=.=.;.>.5.B.M.k.M.u.M.5.5.[ 7 * e v l h e 2 4 0 q y e 7 2 , < = 2 , * < * . = ",
"_ ! K Z f : X ; u / O.5.F.R.F.5.2.T < K M.5.5.>.;.>.;.;.;.>.4.>.4.>.4.>.,.5.[ 6 X 8 T _ ~ [ [ R S 8 . X * r t h c m S J D K ! _ ",
"0.^.B.F.4.R 6 + l ;.5.5.,.5.F.F.e.@.8 v 5.;.>.4.;.>.>.4.>.;.;.;.-.>.>.;.;.>._ 2 2 O.).F.F.G.B.!.(.*.l , P d.F.u.R.F.G.G.5.i.R.u.",
"5.x.,.x.k.5.N X l 4.5.5.c.q.e.=.:.4.3 y >.;.>.;.;.;.;.;.=.o.O.>.,.5.;.;.>.;.` < M k.,.:.5.g.5.,.>.B.T > o.F.,.k.5.v.5.e.5.q.,.j.",
"k.5.k.B.L.U.Z . Z 5.| ;.A.,.F.>.4.=.= u o.O.;.4.>.>.>.;.O.o.&.;.k.5.;.;.>.>.[ 2 Y A.,.,.q.,.c.,.>.^.C < [ 5.5.k.k.5.5.e.k.e.e.e.",
"5.5.u.5.k.!.L O J F.4.u.R.5.B.e.R.( * c O.;.;.O.>.=.=.>.;.O.;.u.5.;.O.O.=.;.[ 3 L I.e.e.B.i.e.4.5.R.B q 5.I.5.>.O.5.M.5.4.e.M.e.",
";.5.u.5.5.^.T X J 6.>.4.5.4.5.0.5.W # Z 5.;.' o.=.>.5.5.u.u.u.u.2.;.=.2.4.2.{ 8 Z 0.4.M.u.>.*.5.5.5.l d G.e.5.e.>.e.M.5.k.I.M.;.",
"4.5.M.B.k.F.T & / 4.O.O.>.>.;.;.5.E # D ;.O.&.O.>.5.e.4.>.4.>.O.;.;.4.;.o.X._ r m F.;.=.=.;.=.4.;.5.m Z R.>.>.5.5.M.I.F.M.e.5.4.",
"5.5.4.,.;.5.T & R >...#.4.,.5.;.e.( @ l O.4.>.;.5.>.;.;.;.;.>.5.,.-.;.>.4.;.[ r l 5.o.-.,.>.;.#.O.5.m L 5.>.>.2.>.>.4.5.5.4.4.5.",
";.>.;.;.&.5.R & K 5.4.e.5.-.;.=.>.K O = K O. .0.5.5.5.5.4.>.;.;.:.;.>.>.;.[ Z : m 0.;.4.>.4.5.4.2.=.f ( 4.;.O.=.;.;.=.;.>.4.4.;.",
">.>.;.,.>.e.~ & l [ =.=.=.O.=.2.1.v : + = u l Z Z K T R ~ _ _ ( R R R Z f 6 : + 8 [ =.O.[ [ ~ Z f e O ! 5.-.O.>.;.4.5.>.=.=.;.;.",
"5.;.O.>.;.;.T & @ t k p r t 8 y r & $ : 6 2 8 8 e 2 * * & & : 7 e 7 : & = * : ; * 2 q y 8 : . & & & & ! 4.;.;.>.;.;.;.;.>.>.>.;.",
"=.| ;.>.=.=.K : D R ( _ ! D B N l l Z ) o.&.4.0.>.| ( 7 & e [ >.5.4.O.O.;.;.o.g O p  .&.o.W W ) X.l   C 6.=.4.>.;.;.O.;.;.&.4.;.",
";.&.;.>.>.5.Z 3 -.j.n.K.K.v.j.f.5.u.5.>.5.B.B.5.U.5.4.J O P T.c.u.F.u.F.e.5.F.[ 2 L !.k.M.I.F.>.k.=.= 7 =.4.;.>.>.O.| &.>.>.4.>.",
";.5.;.;.4.=.u k I.4.-.>.M.e.5.e.5.F.5.;.4.M.B.F.:.S.~.` O ! E.,.B.I.k.B.;.-.k.;.: T I.4.5.e.>. .-.F.u O T O.>.;.;.;.;.>.>.;.;.;.",
"%.5.;.4.0.( < Q a.@.X.=.0.5.5.u.5.5.5.5.M.5.>.>.#.:.5.[ , P F.&.>.e.B._.B.e.B.>.6 T B.,.M.e.4.5.A.5.c O 0 Z X.2.;.5.4.;.>.5.=.=.",
"x k v Z K f < ^ >.5.5.,.:.;.-.-.5.4.4.4.;.4.5.>.4.>.;.O.* V G.,.5.e.5.A.5.B.I.5.6 R e.O.>.u.u.A.B.0.! * . # 2 m K T R T K S N c ",
"* X < < * o @ r m G L R (  .=.2.>.=.=.o.( / [ [ o.O. .T < c u.k.e.B.B.I.e.k.k.>.8 ( I.-.5.e.e.e.q.u.^ * r C r 7 0 8 0 4 , * @ O ",
"O c *.5.=.[ Y m r 8 2 2 7 8 9 e w q 2 = < < = < , 3 3 = @ v >.>.5.4.4.;.=.;.5.4.8 R I.k.U.F.e.e.j.!.{ = L ^.F.=.=.*.o.;.=.[ A 2 ",
", { R.e.c.A.I.I.I.A.5.&.O.O.o.| [ ~ r & a F A v c c V v @ P 2.4.>.;.>.;.;.O.;.=.e R I.5.B.B.5.,.-.U.[ 4 O.k.5.F.i.e.>.5.F.!.2.l ",
"8 =.u.>.>.0.5.F.B.A.A.M.k.B.B.B.A.e.Z 4 O.B.A.F.I.e.k.;.7 T 4.-.;.=.4.=.=.2.;.4.u H F.j.S.e.k.,.M.I.O.s O.5.5.5.e.>.5.e.e.5.0.H ",
"3 =.!.>.O.9.e.5.;.5.k.A.A.k.e.M.k.F.m f F.4.4.F.4.k.e.u.e v u.;...;.-.-.5.-...5.p Z F.k.e.5.e.5.e.!.| w >.>.5.;.#.>.g.5.-.$.5.L ",
"q =.=.O.>.;.;.o. .;.;.;.>.>.-.&.=.=.t Z i.e.k.5.o.M.A.E.y 7 } ;.>.B.e.>.5.5.;. .6 l u.4.>.5.5.5.5.e.[ 8 O.6.=.0.4.4.5.5.4.5.u.R ",
"2 =.p.4.B.u.5.;.=.0.i.u.5.2.;.5.6.+.= R G.:...v.5.e.e.T.p . < q a k b A N c f < @ l 0.;.=.>.=. .;.>.T = A +.Z r j k l l k l C r ",
"* N X.[ [ %.X.=.+._ L J S B B D m r O _ F.k.k.U.k.;.>.0.r : e t y f p r 7 7 8 = X v 5.;.>.=.=. .;.>.J 2 * 2 t f k k k l f t 8 @ ",
"l q 3 0 3 * 2 6 O # < 0 t f r 2 O @ * S i.M.e.e.4.;.>.i.8 h s.u.M.!.!.e.>.k.e.| - c >.;.5.2.>.>.;.>._ * O D i.!.D.5.4.M.F.u.4.[ ",
"5.5.O.=.[ t & * l T O.*.O.;.;.| V 2 @ h =.;.e.F.F.e.5.5.0 l ).,.k.:.,.x.j.5.,.5.r l 4.&.;.5.;.>.,.&.=.8 2 =.u.5.A.A.k.5.;.>.M.F.",
"A.k.Y.k.).D o F >.;.5.F.e.k.B.>.i.A O 0 | 5.;.2.>.5.5.=.q f 5.,.=.G.R.5.i.=.[ F.p f 4.o.O.F.>.;.-.5.2.f 7 0.c.,.=.9.c.c.q.9.u.u.",
"4.6.5.x.R.S = | u.e.5.B.u.5.M.u.F.S X 7 [ 5.O.=.;.5.O.=.r u F.5.g.A.5.5.k.k.Y.A.k t 2.4.;.4.F.;.4.=.2.J q =.B.&.&.e.I.e.5.B.e.>.",
"o.;.q.g.M.D = o.F.5.>.M.^.M.>.O.>.m X 8 X.;.O.u.5.-.o.2.e q R.5.5.u.e.M.e.4.5.M.V 0 6.=.;.4.4.5.O.;.5.J q =.5.,.;.>.5.5.e.B.5.;.",
"4.>.>.5.5.V = ;.M.>.o.>.F.e.;. .M.f . r O.-.5.5.>.;.&.0.l e 4.;.;.>.4.;.O.&.;.5.K 0 2.;.>.o.;.4.;.4.0.D q =.&.5.4.4.,.>.>.;.>.5.",
";.>.&.-.5.Z 8 =.F.5.=.4.F.M.e.5.e.t X a =.:.g.4.>.5.4.=.f 3 O.>.;.;.u.5.>.;.=.4.S 3 X.;.;. .5.M.;.;.;.k 3 *.>.4.>.&.O.;.>.>.>.;.",
"3.=. .;.6.a 8 2.u.e.5.F.F.5.5.M.k.Z @ u 2.M.;.;.=.=.0.=.e = X.5.;. .;.5.4.;.&.4.v * X.5.=.4.;.;.4.4.2.q # _ 0.;.;.;.&.&.;.;.>.;.",
"5.2.>.u.<.9 : X.R.F.F.I.M.5.M.M.5.T & 9 ( =.o.=.=.o.X.P 2 @ R i.5.4.u.u.5.B.4.o.8 * K 2.=.6.6.=.=.O.o.r = m =.2.2.6.6.2.=.=.=.2.",
"d l f q < % @ J M.4.4.>.O.O.5.4.A.( * X = 3 3 3 = # > # O X 7 l Z T R T T ! Z 0 - * * q 7 3 0 3 4 < 2 @ @ 2 D _ ~ S h e 0 q t p ",
"I K K S c i X n 5.;.;.;.| o.5.>.4.! - 6 D [ [ ! A l m N A A p 3 : * * 2 9 y r & & - & 7 h m Z R T D k y r = 8 4 7 8 r f c m Z K ",
">.5.A.5.F.X.r k 4.;.;.4.>.;.;.;.;._ # _ !.A.I.I.I.!.B.5.5.F.F.M.;.&.;.=.=.5.[ f & & m o.>.A.B./.U.U.k.-.o.o.O.&.;.4.M.A.I.I.I.B.",
"o.;.5.F.F.u.l r 4.;.;.;.>.4.4.;.u.R , =.u.5.,.;.B.e.5.k.M.e.5.e.A.5.B.I.e.e.>.[ 6 8 [ u.g.M.-.O.;.e.I.U.U.^.I.M.5.-.&.5.F.e.;.O.",
"5.I.5.A.F.u.h u ;.;.4.4.4.4.;.O.4.( 3 =.u.5.O.>.k.M.k.5.e.M.k.e.,.&.;.S.B.M.B.M.x 8 *.^.5.4.&.;.A.I.I.B.M.B.B.M.5.5.e.k.B.F.A.M.",
"5.M.5.,.e.2.t y ;.;.>.>.;.;.>.4.5._ # ( 4.q.-.5.q.B.k.4.>.5.5.4.-.O.O.;.4.4.>.;.D 3 *.^.5.5.4.M.B.M.e.5.5.5.5.e.5.e.5.,.5.B.B.5.",
"4.;.5.;.=.6.f e >.;.;.;.O.o.=.>.4.( < ! 4.;.;.>.;.-.;.5.4.=.&.;.4.4.5.4.4.>.>.4.K , [ 4.-.>.>.;.>.>.>.;.&.O.O.O.>.;.4.5.5.>.;.>.",
"O.O.;.>.=.=.e k 4.;.;.;.O.&.;.;.;.R = C =.;.;.4.&.;.>.5.5.4.4.6.2.2.4.>.;.=.;.4.N # T *.=.>.>.;.;.;.;.;.=.=.;.4.;.4.5.5.4.4.5.u.",
"o.4.;.5.0.[ 3 C =.>.4.>.=.4.6.>.@.D @ 8 ! 2.4.7.5.e.5.4.4.2.=.O.=.=.=.2.4.5.6.;.c < P =.8.5.5.6.6.2.2.5.4.;.;.4.4.5.>.&.;.5.5.=.",
"4.;.[ W W k @ 8 m R | [ E K m t 0 2 & & = m K R ( Y K K Z l q 4 3 e f l m G Z z 2 . r f l m Z Z Z B Z J T ( [ X.O.;.>.>.;.=.;.>.",
"6 2 : : @ % ; : r r 2 : = @ & & * = : < < * = , = * & @ X 9 t q r 2 < : @ O @ * < 7 8 r r 0 0 7 < < = @ % ; & : 8 e y y r 9 9 8 ",
"l m D K v 7 X x 5.4.o._ ~ ( [ ] [ [ [ [ [ X.o.o.O.[ f @ r 4.i.4.6.6.2.O.[ [ [ [ =.=.=.>.6.5.2.=.o.` Z v 8 @ r l v Z Z Z Z Z m l ",
"e.B.R.u.;.J o Z A.k.A.B.e.B.B.e.e.5.e.>.>.B.M.B.U.I._ 3 l 0.,.v.e.M.M.M.e.4.5.I.M.e.5.k.F.B.5.;.M.>.) ( 0 8 =.I.M.M.F.R.F.5.5.e.",
"B.e.5.5.M.=.3 c L.;.,.v.k.v.k.A.A.k.A.,.,.A.5.k.,.I.5.0 K R.5.:.A.j.5.k.5.O.O.5.k.k.k.A.A.5.,.-.k.5.4.*., v ).j.-.>.g.A.k.,.4.S.",
";.O.-.k.M.u.h h ^.;.;.5.4.5.5.5.e.5.F.B.k.k.;.>.5.e.u.e Z 5.&.' ;.5.4.>.5.5.5.u.5.M.u.F.F.M.M.5.4.5.5.X.= R F.&.| ;.5.5.5.M.u.4.",
"=.;.>.k.>.p.C y 2.=.=.;.;.4.;.o.4.;.4.4.4.;.O.=.4.6.6.h c =.>.;.>.5.4.=.;.4.4.;.>.;.O.=.;.4.5.5.5.5.2.[ 7 { =.>.;.4.4.;.4.5.4.;.",
"=.>.;.,.&.2.C y 6.6.6.2.2.4.6.>.4.4.4.>.4.4.4.4.4.5.=.r 0 o.0.5.4.;.=.;.;.;.;.;.>.;.o.O.;.;.4.>.;.4.>.X.u o.4.5.u.4.=.=.=.&.=.;.",
"5.4.-.;...Y , : l M M Z G Z L E E ( ( ) |  . .) ) ) R 2 @ l ' ;.>.O.&.>.>.>.4.4.;.>.>.,.4.>.,.;.4.>.&.E , R M.,.e.k.e.5.>.>.4.5.",
"C v p e 7 @ . * * * * 6 2 = < @ * & 5 : @ 2 3 2 6 2 & * * X * 6 e y u p f f v F _ o.o.[ [ ( _ _ ! Z a 7 * < y v Z T R _ L T U V ",
". = 7 q 0 f P _ [ X.X.X.X.O.[ Z 7 & @ e J ) [ X.} [ R T J v k p r e e t e 3 O = 2 2 2 # 3 0 q 0 , # O O @ * # @ O O O # @ @ * & ",
"0 _ 2.4.6.6.i.6.!.k.5.e.B.B.B.>.R 7 @ T M.S.F.^.B.B.u.I.I.I.F.4.&.*.=.6.=.( 8 @ O 8 Z R O.O.*.=.O.[ / T R ` X.O.{ R V f 8 & @ : ",
"G B.B.>.k.5.M.B.,.....5.k.,.,.k.5.p # =.I.5.g.5.j.j.k.c.q.k.B.q.A.B.F.B.M.5.Z & 7 O.).i.B.^.I.e.B.I.I.B.5.u.I.R.R.R.G.0.X.A 6 & ",
"| k.5.k.A.,.k.5.>.;.,.e.M.M.k.M.i.Z , >.5.j.A.g.k.5.k.B.5.5.k.k.j.k.k.,.5.B.[ < f T.i.e.5.5.5.A.5.5.5.,.,.5.g.5.>.5.5.A.B.2.N & ",
"[ M.4.>.c.v.A.k.F.M.u.5.5.e.>.=.i._ 4 2.i.q.;.5.e.5.A.F.M.5.;.;.:.5.I.A.v.e.X.< d ).5.5.e.v.>.;.k.j.k.k.k.k.g.,.;.f.f.K.L.R.R * ",
"( F.5. .>.k.5.5.u.5.e.5.u.5.O. .4._ 0 =.B.-.| ;.5.e.A.e.e.5.;.=.;.4.u.5.v.M.[ 6 M !.5.A.B.>.&.>.A.k.k.e.5.5.e.e.4.5.x.j.k.M.O.7 ",
") ;.6.;.>.4.4.;.>.>.>.&.;.e.>.;.4.) t =.u.>.>.5.k.^.!.5.5.B.5.M.5.F.u.>.A.!.~ : G F.5.,.,.e.M.F.5.>.>.q.e.e.u.e.F.5.k.,.e.5.2.8 "
};
