/* XPM */
static const char *xpm_[] = {
/* columns rows colors chars-per-pixel */
"64 64 256 2 ",
"   c #2C281C",
".  c #37291B",
"X  c #3F341E",
"o  c #342C24",
"O  c #3B2E24",
"+  c #372C29",
"@  c #3D342B",
"#  c #383327",
"$  c #3C3734",
"%  c #2E2D29",
"&  c #4D351E",
"*  c #43352B",
"=  c #443B2D",
"-  c #4B3C2C",
";  c #483526",
":  c #523C2C",
">  c #563828",
",  c #443C33",
"<  c #4B3C32",
"1  c #463A37",
"2  c #533D33",
"3  c #583D35",
"4  c #442E24",
"5  c #633C30",
"6  c #54432C",
"7  c #5A4529",
"8  c #4D433B",
"9  c #484237",
"0  c #534333",
"q  c #5B4234",
"w  c #5C4B34",
"e  c #544A3C",
"r  c #5C4C3D",
"t  c #564639",
"y  c #524A34",
"u  c #64482A",
"i  c #644B3B",
"p  c #674837",
"a  c #764B38",
"s  c #69543A",
"d  c #72543B",
"f  c #785838",
"g  c #72552C",
"h  c #7A6139",
"j  c #6A4616",
"k  c #473E43",
"l  c #494B46",
"z  c #554C43",
"x  c #584A45",
"c  c #5B5243",
"v  c #5B534B",
"b  c #555349",
"n  c #5C5652",
"m  c #4F5052",
"M  c #684D42",
"N  c #6A5B4B",
"B  c #675747",
"V  c #7D5A4B",
"C  c #765747",
"Z  c #655B53",
"A  c #685B54",
"S  c #7A5C52",
"D  c #714F45",
"F  c #6B624B",
"G  c #77644A",
"H  c #6A6359",
"J  c #776857",
"K  c #7F7252",
"L  c #665E65",
"P  c #746C63",
"I  c #786C69",
"U  c #7A7369",
"Y  c #777571",
"T  c #6B6A63",
"R  c #5F6154",
"E  c #85593B",
"W  c #8F5936",
"Q  c #896639",
"!  c #946B39",
"~  c #A8793E",
"^  c #845D4C",
"/  c #8A5A48",
"(  c #965C49",
")  c #865D52",
"_  c #915E5A",
"`  c #85624D",
"'  c #8B624D",
"]  c #886946",
"[  c #94674B",
"{  c #997446",
"}  c #846352",
"|  c #8B6452",
" . c #8D6954",
".. c #8D6C5A",
"X. c #876659",
"o. c #926553",
"O. c #936A55",
"+. c #996B55",
"@. c #936559",
"#. c #946C5A",
"$. c #9A6D5A",
"%. c #9C6554",
"&. c #887558",
"*. c #94715B",
"=. c #9C715C",
"-. c #977456",
";. c #877249",
":. c #A66648",
">. c #A47B44",
",. c #A57C4C",
"<. c #AC7D4B",
"1. c #A57947",
"2. c #A76B56",
"3. c #B46B56",
"4. c #A87758",
"5. c #BC745B",
"6. c #BB7657",
"7. c #B66F4C",
"8. c #9C6E63",
"9. c #867969",
"0. c #997665",
"q. c #877B76",
"w. c #866E69",
"e. c #A57665",
"r. c #BA7A65",
"t. c #AA776A",
"y. c #A05F4B",
"u. c #C2765C",
"i. c #C47B5C",
"p. c #CA7D5D",
"a. c #C77855",
"s. c #D47D5D",
"d. c #C57348",
"f. c #C57B62",
"g. c #CA7D63",
"h. c #C87966",
"j. c #D07F64",
"k. c #AE813E",
"l. c #99855D",
"z. c #8A8156",
"x. c #AD834B",
"c. c #AA8248",
"v. c #B3834C",
"b. c #BA884C",
"n. c #AB8353",
"m. c #A88557",
"M. c #B38453",
"N. c #B58A54",
"B. c #BC8C53",
"V. c #BC8D5A",
"C. c #B88856",
"Z. c #BB915A",
"A. c #988768",
"S. c #8D847B",
"D. c #898579",
"F. c #96897A",
"G. c #978A72",
"H. c #A48C68",
"J. c #AA966C",
"K. c #B5996A",
"L. c #A39372",
"P. c #AD9974",
"I. c #AA9576",
"U. c #B39C73",
"Y. c #B89D76",
"T. c #AA8A6F",
"R. c #B5A275",
"E. c #BAA375",
"W. c #BBA47B",
"Q. c #BEAA7B",
"!. c #B7A579",
"~. c #B2A271",
"^. c #C68C49",
"/. c #CB835D",
"(. c #C48859",
"). c #D5845D",
"_. c #CC9455",
"`. c #C3935B",
"'. c #CA955C",
"]. c #CC9A5D",
"[. c #C79558",
"{. c #D39B5C",
"}. c #D29857",
"|. c #CD9448",
" X c #D7A15E",
".X c #CD8363",
"XX c #CD836A",
"oX c #C98566",
"OX c #D28464",
"+X c #D2846A",
"@X c #D48A6A",
"#X c #D98867",
"$X c #CC9B62",
"%X c #C59965",
"&X c #D29D62",
"*X c #D79968",
"=X c #CD9073",
"-X c #E28868",
";X c #E79171",
":X c #D8A364",
">X c #C3A57B",
",X c #C4AB7C",
"<X c #CBAC7D",
"1X c #C5AA75",
"2X c #CBB37C",
"3X c #C6B277",
"4X c #CFAC75",
"5X c #E5AB6C",
"6X c #877C82",
"7X c #8C8584",
"8X c #958C83",
"9X c #9A8D84",
"0X c #9B8D8A",
"qX c #938985",
"wX c #9B9186",
"eX c #9C938B",
"rX c #989689",
"tX c #9E9891",
"yX c #A28B86",
"uX c #A2968C",
"iX c #A49A8D",
"pX c #A8988B",
"aX c #A39492",
"sX c #A59C93",
"dX c #AB9D94",
"fX c #A99A98",
"gX c #B19F98",
"hX c #B99B81",
"jX c #BAA784",
"kX c #ACA295",
"lX c #ADA39B",
"zX c #A9A59A",
"xX c #B3A294",
"cX c #B3A59B",
"vX c #B4AA9D",
"bX c #BBA89D",
"nX c #B3A98A",
"mX c #ACA8A4",
"MX c #B4ABA2",
"NX c #BAABA3",
"BX c #B7A9A6",
"VX c #BDB2AA",
"CX c #BBB1A5",
"ZX c #B2B1A9",
"AX c #C5AC82",
"SX c #CBAD83",
"DX c #C7A988",
"FX c #CBB383",
"GX c #CAB587",
"HX c #D4B887",
"JX c #C5AE95",
"KX c #C1ADA5",
"LX c #C2B4AB",
"PX c #C4BBB5",
"IX c #D9C193",
"UX c #E7C796",
/* pixels */
"G V X.S : &.HX<X,XAXSXAX,XE.U.Y.!.U.Y.>XQ.Q.!.H.r } e.o.+.' -.+.$.O.O.#.| #.^ | } 0 i e.0...+.O.#.O.O.#.#.#.#.$.O. .O.#. .' ' | ",
"[ / / C C !.,X2X<X<XSX>XE.E.E.P.K.K.K.E.E.U.U.J.c N 0.| '  .` o.|  .|  .}  .` ` X.- } t.#.*.| o.| | ` ` ` ` ` ` ^ |  .X.} } } V ",
"C X...B B nXH.>XQ.R.J.U.Q.E.U.jX,XFXAXQ.U.P.I.A.@ O M S } X.V @.| ..| | |  .| ' X.4 0.%.+. .#.` ` ` ` ` } X...| @.#.@.| |  .| | ",
" .^ V u s JXY.>XY.Y.W.>XW.Q.Q.J.A.&.J J B r M < $ = O - : t i 3 p D p D C V ) ^ M : X.e.[ +.#.} ^ } } ^ ^ | | ` ` ` G ^ ` ` ^ ' ",
") V D : 6 9.A.A.L.L.X.B N B t * @ , Z q.qXqXyX0XeX8X9.wX8X9.9.U P H Z Z B e 0 - O 2 V 0.o.+.| ) } | X.| | | X.| ' / ` | | ^ ^ X.",
"x x 1 + o @ - < q q q i q q r <   Z zXmXVXNXcXbXNXNXNXNXvXVXCXMXNXlXlXkXdXeXF.9.o ; D C ..#.} S V V V V V V V V ^ V V C M i M B ",
"a f E +.4.5.5.oX/..X7.7./.oXi.:.- J NXlXdXlXcXbXdXsXvXMXcXcXuXlXNXgXNXNXNXNXlX8Xc p 3 e q i ; ; q 0 2 0 0 : : : 8 @ = 0 q p d d ",
"@X.X@X#X#X#X).).OXOXOX@XOXa.g.g.S 3 9XcXsXdXlXkXcXkXlXsXdXcXpXgXiX8XiXeXeXdXeXU r p p c M N N F F N N J J J J J 8 . : | r.+X-X-X",
".X.X.X.X/..X.Xi.f..XOX.Xg.h.f.u._ - H eXdXyXyXrXwXuXuXuXuXwXwXuXeXdXaXuX9X0X7XZ 8 z.2X>XFXHXFXFXGX,XK.HXFXHX<XHXA.; 6.@X+XOXp.OX",
"OXOXOXOXOXOXOXg..X.X.X.Xg.f.u.f.a.2.q U vXdXsXeXtXeXqXqXtXaXeX0XD.D.J H v z z o 8 L.HX1XAX,XSXSX<XFX,XE.FXE.H.HXB 0 +X.X+X.Xi..X",
"u.p.OXOX.X.X.X.Xg.OXg.i.i.i.i.i.d.j.V b H U D.w.P H A A A A N B i i i D M M D 2 < A.HXHX>XK.>X<X<X<X,XQ.U.P.jXl.w 0 p.7.h./.g.OX",
"+X@X@X.X6.6.i./.f..Xi.6.u.h.j.g.4./ 3   @   0 ) V } X...#.#.*.=.#.#.#.8.$.#.*.| - L.HXE.R.E.,X,XSXQ.Y.E.U.!.U.Y.&.t u.a.+X@X+Xi.",
"i.i.p.i.i.i.i.i.p.p.i.5.4.%./ a p f { -.w - t.e.=.$.=.=.=.+.+.[ #.#. . .|  ...` 6 J G.L.A.I.I.&.A.jXW.!.U.U.l.Q.G.r 6.@Xh.i..XoX",
"p.a.u.f.g..Xg.i.r.2.W a g g h ;.4.%X}.:X] u @.[ #. .o.O.O.O.O.| $.=.=.$.#.#.O.` t + O * = 2 1 * y 9.G.I.U.W.Y.H.H = W 6.u.i.i.i.",
"g.f.g.XXr.2.( E 7 d ] { ,.,.<.b.'.^.^.:X[ d ..$.#...#.#.#.#.#.#.$.+.@.o.o.o.| | N x q.wXS.q.P , @ < r r N G 0 - O , 5..Xu.7.i.p.",
"5.2.( E a p d G ! M.V.M.<.<.M.C.$X}.'.1X-.V ..o.+.o.+.$.O.O.#.o...| | } } ` ` ` C B dXCXCXVXVXrXtXmXsX9Xq.I Z 1 @ , f.@X+X@X;XOX",
"p p u g { { >.x.x.<.<.B.V.v.B.].].{._.V.f C #.+.-. . .` ` | ` | ( ` } ) @.| | o.} q sXZXlXlXMXMXNXbXcXNXNXdXKXpX6X3 3.OXa.5.%.^ ",
"E [ { ,.n.<.v.V.[.&X$X$X].`.B.&X$X'.n.g 4 M 0.| / / o.| | }  .X.@.X...| ) C F s 0 * S.bXJXbXxXvXkXvXcXsXlXmXmXVXrXB s C p > u u ",
">.c.x.B.`.].$X$X%XZ.V.N.C.C.,.n.~ v.,.u 4 2 ..e.t.8.@.) } D D D l < u p i * < - : O P vXkXdXcXsXlXMXcXMXMXwXD.tXfXA . 7 G ;.-.,.",
"[._.{.:X&X'.:X_.(.v.v.v.v.C.B.V.n.m.Q > N - . 5 i 0 M 0 t c c , . a @XOXXXh.h..Xr.C r tX8XtX0XuXaXeXdXpXpXF.F.iX7Xx f c.c.B.(.(.",
">.N.%X%X! W ,.{ { ] g g f f g u t ; - = e b H Y Z z 8XkXkXvXMXiXZ E #X)./.oX/.(.-X5.a A qXtXuXsXiXwXeXS.0XfX0Xq.n o q a f E Q ! ",
"8 < 0 t t * $ + , H P H U P Y D.q.7X9XpXcXMXZXZXMXeXMXMXMXcXgXNX7X5 r.@Xf.f.f..Xs.r.D , Y 7XeXS.S.D.H T T P H B w G J A = z r y ",
"L.L.J.J.H.J . 1 iXvXVXCXCXNXCXLXLXCXbXbXbXxXcXbXcXNXMXdXbXNXbXbXzXr / f.i.5.5.3.3./ 4 @ 9 F B d i r ; = O B L.GX<XHXHXHXK R.jXA.",
"HXHXHX2XHXjXt q.LX9XiXbXkXbXbXdXkXMXzXzXBXfXgXBXNXuXsXNXiX9XMXMXlXr p ( [ u : M g { m.>._._.].].V.{ J.u & jXHX1XAX>X1X>X>XAX<X2X",
"E.E.<X1XFXjXB qXVXuXfXMXMXMXlXlXkXvX8X9XbXdXrXzXdXdXgXbXuX9XcXcXuXY $ # 6 g { Z.:X&X{.].k.].].{.&X].:X{ 1 L.4X>X<X<X<X>XSX,X>X<X",
"L.H.,X>XK.A.i pXvXvXMXvXcXbXbXbXBXdXtXaXeX0XfX0XtXeXrXtXeXeXaXrX9Xq.3 s K.{.&X$X>.Z.%X`.V.%X%XV.[.{._.{ 1 &.2XDXAXAXQ.R.P.P.AXW.",
"P.!.U.U.Y.&.t pXcXbXcXcXcXdXpXpXeXeX8XrXtXaX0XaXeXeXeXeXeXeXeXeXuX7X8 1.:X(.`.].c.`.&X{.&X].$X[.*X%Xb.{ - jX2X,XE.H.J.Q.!.R.U.U.",
">XU.!.!.pX9.1 n w.cXbXuXtXsXzXtXeXeXiXrXwXrXeX9XuXpXdXdXuXuXwX9XU m # j {.].$X_.v.b.b.B.b.B.B.[.V.x.<.{ - z.3XAXFXQ.,XAXK.Y.Y.Y.",
"I.P.A.&.F < , @ v 7XsXdXlXsX0Xq.7X9XpXpXpXsXaXdXfXeX8X8X8XS.P v * p  .& 4.5X^.M.C.b.N.Z.N.N.x.<.,.{ { ] O = i N &.jXA.H.jXI.J.Y.",
"c < 0 : C } D i < < = e B v v Z Y U q.9X7X7XY H z 8 1 9 , $ #     6 6 % = ] Q G / ] h f f g s w 7 6 & ; o + o + o @ # c F F J F ",
"H @ J *.o.e.T.=.8. .V i ; 4 O o o , = 9 9 # O & > u p d p p ^ ` ( C C @.%./ %.( D p q ; * 1 % l I n qX0XtX8Xw.8XtX8X7XT z B H A ",
"F.; ..#.[ $.' #.+.' =.0.#...} S V C V N 4 > e.+X.X.X+X@XOXa.#X#X#X).).#X#X-XOXXX.X6.@Xg.5.4.& 9.LXrXsXCXkXCXKXMXbXbXNXxXdXuXlXVX",
"N ; } e.O. .$.*.O.O.o.O.+.$.$.$.+.8.%.o.* ^ ;XoXi.@X/.i.+X#Xs./.XX6.OXg.XXoX.X/./.p.f..XOXXXa H NXbXdXcXuXcXcXlXMXdXuXNXdXcXVXuX",
"tX1 M e.#.$.4.o.O.#.#.#.#.O.O.#. .X.#.' # d #X.Xi.i.OXoX6.h.@XoX.Xa.)./..Xi.@X)..X+XXX.X.XoXp n vXNXcXcXNXvXuXuXMXlXcXNXlXMXlXeX",
"eX8 p $.' o.+.' #.#.....| | | X.;.X.` d % 6 OX#Xp.s.#X@Xi..XOX6.oXi.6.oXr.W r.g.i.u.5.i.p.f.a U VXcXkXcXkXlXdXsXxXxXxXpXF.uXuXdX",
"8Xz C e. .} X.X.' ' | ` ` | ` ^ f _ ) X.1 6 #Xs..X#Xs.i.(.g.p.6.5.oXi.u.f.5.XXf.i.oXi.a.a.f.a I LXcXkXNXeXeXuXeXeXeX8XeXeXeXeXqX",
"9.= p o...^ ) X.' / / ' ' | ` ....) } X., 4 XX#Xr.f.p.i.5.f.h.5.i.i.OXi.i./.p.a.p.a.6.p.g.2.> Z lXcXdXdXdXeXeXeXeXeX9XaX0XS.0XqX",
"9 l x q G  .' ' 0.#.0.0.X.C i C i i t 2 O # / =X6.OXa.d.a.p.j..Xh.3.u.f.u.5.3.g.+XXXr.2.( i   # 8 z B H D.S.0XD.8XS.8XS.P v z z ",
"o R Z + # 8 2 < i i M t 0 0 4 O e I D.8X0XY - s W @X-XOX@XoX3.:.i 7 p s 0 - 0 0 5 u q 5 M c v T H z O @ 1 1 x 8 z z , , ,   # # ",
"_.<.,.[ 7 w d 7 < - *   9 q.eXtXgXLXZXNXNXVXq.J : $.t.( p 5 i - C &.A.I.F   1 v H T T I aXlXVXKXMXsXH q.P z o @ W n.1.,.n.Q n.Z.",
"_._.:X&Xb.b.$X$Xb.M.M.Q z PXNXNXMXMXdXbXdXgXbXbXeXc - G A.jXjXL.,X2XHXGXF z fXbXcXq.lXlXNXcXdXcXJX0XzXbXbXL o u |.:X X_._._.{.{.",
"].$X$X].$X>.b.&Xb.V.:XQ - tXbXdXkXiXiXkXiXlXvXkXMXN K IX<X2X4X4X!.GXAX&.c rXMXcXlXeXMXvXMXMXcXiXcXmXMXxX9.@ 7 x.$X].'.$X$X`.$X%X",
"B.B.`.].:X^.}.{._.`.b.Q 0 eXcXvXdXwX9XwXaXlXlXdXiXB G.JXP.&.H.P.T.I.U c S.NXvXcXcXdXsXcXdXcXNXvXmXlXgXuXz X { '.&X[.B.`.V.v.N.C.",
"<.<.<.v.v.'.&X(.&X$X&X%X0 tXVXzXeXS.uXkXiXuXF.U A 9 B s w 0 r r 7 - % I PXxXcXMXuXeX8XsXeXwXuXuXeXyXaXI o g ,.<.>.M.x.<.v.,.{ ,.",
"M.<.1.<.<.C.<.,.b.N.].K.- v 9.P L $ x A < < r r s d f ] ,.M.V.`.m.7   Y dXxXgXBXwXeXeXeXwXuXeXwXF.pX7Xl 6 C.b.1.{ n.n.1.,.,.1.n.",
"<.~ c.c.x.x.n.,.>.c.c.n.i . & u g { n.{ { N.].].:X:X:X:X}._.{._.N.] 4 1 F.KXbXeXwXwXeXeXeXeXwXeXiXS.b % f ].}.x.M.,.v.v.<.v.v.v.",
"N.N.N.x.c.c.c.>.<.,.<.,.7 C %X%X[.:X X{.:X^.b.{._._.b.B.~ N.c.,.>.{ 6 < lXeXwXsXvXcXlXkXaX8Xq.D.P z o # 6 f ] ] ] f { m.,.,.,.1.",
"7 f E { 4.4.W 1.M.,.M.1.u ] :X|.`.`.B.M.M.n.V.,.,.,.n.{ n.<.1.<.x.m.C - rXzXwXU S.8XU A z e , @ * ; 0 ; $ + + # o o * = = 6 6 t ",
"A.&.F $ + * , - g g ] ;.u E '.}.b.{ H.<.>.m.n.b.B.b.B.`.v.v.1.{ >.{ ] : e l k $ % o * q p / %.2.6.g.u.6.2.( > $ } I.J.P.W.L.&.L.",
"FXHXl.; p o.a +.#.C 3 2 * , r t 0 ; 7 7 d i 6 d s s p i w 6 w 6 6 - ; *   w a [ 2.:.5.@X#X#X#X-X@XOX@XoX.XXXp z K.IX2X2X2XFXHX,X",
"FX,XAXK i =Xp.oX-X#Xa.5.r.4.2.( @.' d 0 Z r P.R.L.L.A.9.J N A.A.U F w + e r.;X@XoX/.OXOX/..X/.i./.OX.X6.a..Xa 9 m.HX,XK.,XAXE.,X",
"K.W.HXP.w f.s.5.6.i..X.XXXf.OXOXOX#Xr.3 y ,XHXFXHXHX2XHXFX,XIX,XjXFXP., 1 :.-Xf.OXOX+Xg.f.XXXXg.s..XoXp.).i.a v jXDXU.Q.W.H.U.>X",
"R.>X>XAXd :.)..Xh.f.u.u.f.6.i..XXXa.+X> } UX1XI.2X3X1X2X1X,X,XK.T.<XU.H o / s./.OXs.OXOXOXOXOXOXOXoXoXi.p.r.; 9 G 9.P.A.J.jXR.E.",
"A.&.K G.N a C.2.5.OX).a.OXOXp.).XX).7.s N H.1XjX,X,XAX,XU.AXAXFXGXE.l.J   a @X@XoX.X.Xi.i.i.a./.i.5.oX3.%.a 2 n v 8 0 0 0 B A.L.",
"l e , l 1 O < 4 ; i f f / o.[ %.3.6.2.2 9 &.2X3XSXSXSX>XW.AXW.Y.E.E.E.L.e ; r.+Xi.g.g.i.f..Xg.p.i.i..Xr.^ < D.NXfXfXeXq.Y A 1 = ",
"7XnXcXaXF.sXrXyXc - w ` ] ] f f s p 3 O r GX>XY.P.R.R.J.P.U.U.U.U.!.Y.hXU . / OX.Xi.i.5.f.f.f..X+Xp.7.:.3 Y ZXcXcXvXvXvXMXNX8X= ",
"lXBXNXsXBXlXuXbXq.-.5X|.}.&X$X`.v.m.s . c jX!.U.AX>XE.R.!.AXAXQ.!.U.U.Y.G.: > t.2.7.#Xg.+XXX:.) %.( a q . J 9XF.S.7XeXeXeXeX7Xb ",
"B I I S.0XeXwXwXP u >.$Xx.,.! ! ! { d . < &.L.T.H.J.!.Q.!.J.J.U.!.!.H.L.A.y . ; 0 p O.O.f a u ; - O o $ % $ 1 , 8 8 z v Z H H 8 ",
"q 3 : 0 1 z e 8 # $ r 0 M N s s C i 0 n l 8 = 8 8 8 8 e r e e e B N i N v % 8 H m z O O i | *.X.^ V V C C M p p D p p p p p D i ",
" .D  .} 0 . G G.~.jXP.;.AXFXFXHXGXE.E.jX!.l.;.w + x S ^ ) ^ C D * M i t 2 $ 8 z I U 1 - X.t.$.+.4.e.t.$.=.+.+.O.#.#.#.$.#.#.$.$.",
"' #.$. .C C IXAX>XFXSXAX<X>X>XDXAX<XFXSXFXHXHXL.; G e.2.+.=.=.-.} *.*.O.#.*.` d - @ o r ^ $.$.+. . ...=.$.=.$.O.#.*.*.#.#.#... .",
"o.@.@.-.C &.HXE.Q.,X,XFX3XHX!.-.AX3XE.FX>X2XFXjX= F ..o.#.*... .#.o.o.[ [ +.o.4.` - e 0.T.e.=.o.8.@.@.8./ #.#.#.+.#.+.o.| =.#.#.",
" . .0.| u T.HX1XSX<X<X1X<X<XY.H.HX<X<XY.SX4X<X>X0 } =.+.o.O.O.$.o.8.$.o.@.8.@.#.$.3 t #.4.%.o.o.o.$.$.+.`  . . .4.$.+.[ / +.o.| ",
"` ) | V : T.HX,XSX,X,XFXSXSXAXAX,XQ.!.!.AX2X3XE.0 } =.o.#.#.O.@.$.=. .*.#.| `  .| < 2 X.4.o.#.| ..#...#.+.4.4.e.*.#.#.| ^ ..| } "
};
